:version 1.10
:name ASF
:units
  mass 1
  length 1
  angle deg
:documentation
  ASF file generated by Kaydara
:root
  axis xyz
  order  tx ty tz rx ry rz
  position 0 0 0
  orientation 0 0 0
:bonedata
  begin
    id 1
    name RightUpLegDummy
    direction -0.718183 -0.695806 0.00816078
    length 4.904
    axis 0 0 0 xyz
  end
  begin
    id 2
    name RightUpLeg
    direction -0.0736652 -0.994202 0.0783343
    length 17.4976
    axis -2.72909 -3.00389 -4.00133 xyz
    dof rx ry rz
  end
  begin
    id 3
    name RightLeg
    direction -0.0389037 -0.994596 -0.0962598
    length 16.5821
    axis 3.95836 -18.5909 -4.46993 xyz
    dof rx ry rz
  end
  begin
    id 4
    name RightFoot
    direction -0.311643 -0.412678 0.855906
    length 3.77069
    axis -1.99483 -18.8351 -3.27644 xyz
    dof rx ry rz
  end
  begin
    id 5
    name RightToes
    direction -0.317852 0.0389852 0.947339
    length 3.85082
    axis -2.00228 -18.1713 -3.25211 xyz
    dof rx ry rz
  end
  begin
    id 6
    name SpineDummy
    direction 8.3039e-015 1 4.44677e-016
    length 4.6813
    axis 0 0 0 xyz
  end
  begin
    id 7
    name Spine
    direction -0.000262373 0.999988 0.00493267
    length 10.1015
    axis -0.00246081 0.00062579 0.0150362 xyz
    dof rx ry rz
  end
  begin
    id 8
    name Spine1
    direction 0 0 0
    length 0
    axis -0.00349562 0.000650293 0.0196666 xyz
    dof rx ry rz
  end
  begin
    id 9
    name HEadDummy
    direction -0.000343232 0.999999 0.00123745
    length 3.43865
    axis -0.00349562 0.000650293 0.0196666 xyz
  end
  begin
    id 10
    name HEad
    direction -0.0461221 0.980933 0.188796
    length 5.12695
    axis -0.00351404 -7.04812 0.0199272 xyz
    dof rx ry rz
  end
  begin
    id 11
    name LeftShoulder1Dummy
    direction 0.998904 -0.0399089 -0.0244534
    length 3.5433
    axis -0.00349562 0.000650293 0.0196666 xyz
  end
  begin
    id 12
    name LeftShoulder1
    direction 0.99951 1.64443e-005 0.0312999
    length 4.05031
    axis -0.00349562 0.000650293 0.0196666 xyz
    dof rx ry rz
  end
  begin
    id 13
    name LeftArm
    direction 0.984791 0.0515299 0.165927
    length 12.9126
    axis -64.823 -10.7743 5.20463 xyz
    dof rx ry rz
  end
  begin
    id 14
    name LeftForeArm
    direction 0.984968 0.0534808 0.16425
    length 10.8596
    axis -30.0462 -7.70601 1.87451 xyz
    dof rx ry rz
  end
  begin
    id 15
    name LeftHand
    direction 0.975871 0.0289682 0.216418
    length 6.62295
    axis -20.1348 -6.98077 1.86072 xyz
    dof rx ry rz
  end
  begin
    id 16
    name RightShoulderDummy
    direction -0.998877 -0.0405946 -0.0244307
    length 3.5433
    axis -0.00349562 0.000650293 0.0196666 xyz
  end
  begin
    id 17
    name RightShoulder
    direction -0.998933 -0.0249743 -0.0388558
    length 4.05031
    axis -0.0205316 -4.02113 1.41395 xyz
    dof rx ry rz
  end
  begin
    id 18
    name RightArm
    direction -0.997559 0.068664 0.0127103
    length 12.9638
    axis -67.3882 1.84188 -6.15987 xyz
    dof rx ry rz
  end
  begin
    id 19
    name RightForeArm
    direction -0.991508 0.0912848 0.0926241
    length 10.8312
    axis -22.1975 3.41087 -4.28711 xyz
    dof rx ry rz
  end
  begin
    id 20
    name RightHand
    direction -0.989262 0.0600788 0.133232
    length 6.57864
    axis -12.2911 2.17515 -4.39675 xyz
    dof rx ry rz
  end
  begin
    id 21
    name LeftUpLegDummy
    direction 0.718183 -0.695806 0.00816078
    length 4.904
    axis 0 0 0 xyz
  end
  begin
    id 22
    name LeftUpLeg
    direction 0.0831398 -0.99469 0.0606531
    length 17.4976
    axis -1.71016 2.29552 4.63832 xyz
    dof rx ry rz
  end
  begin
    id 23
    name LeftLeg
    direction 0.0498442 -0.991778 -0.117862
    length 16.5821
    axis 5.13757 15.5727 5.13348 xyz
    dof rx ry rz
  end
  begin
    id 24
    name LeftFoot
    direction 0.269026 -0.433896 0.85986
    length 3.77069
    axis -0.576502 15.6961 4.10267 xyz
    dof rx ry rz
  end
  begin
    id 25
    name LeftToes
    direction 0.277311 0.0251143 0.960452
    length 3.85048
    axis -0.576502 15.6961 4.10267 xyz
    dof rx ry rz
  end
:hierarchy
  begin
    root RightUpLegDummy SpineDummy LeftUpLegDummy
    RightUpLegDummy RightUpLeg
    RightUpLeg RightLeg
    RightLeg RightFoot
    RightFoot RightToes
    SpineDummy Spine
    Spine Spine1
    Spine1 HEadDummy LeftShoulder1Dummy RightShoulderDummy
    HEadDummy HEad
    LeftShoulder1Dummy LeftShoulder1
    LeftShoulder1 LeftArm
    LeftArm LeftForeArm
    LeftForeArm LeftHand
    RightShoulderDummy RightShoulder
    RightShoulder RightArm
    RightArm RightForeArm
    RightForeArm RightHand
    LeftUpLegDummy LeftUpLeg
    LeftUpLeg LeftLeg
    LeftLeg LeftFoot
    LeftFoot LeftToes
  end

:SAMPLES-PER-SECOND 30
:FULLY-SPECIFIED
:DEGREES
138
root  -1.18909 30.3128 43.5159 -162.032 9.38588 -178.558
RightUpLeg  -60.534 1.39288 6.4581
RightLeg  80.106 15.3944 -4.72596
RightFoot  -36.4831 0.12521 0.0022335
RightToes  -1.16415e-010 -3.18055e-015 -2.98177e-016
Spine  36.6222 -0.841868 17.354
Spine1  -4.55745 2.2041 2.82385
HEad  -17.3551 -0.818155 2.94987
LeftShoulder1  -3.88251e-019 9.70628e-020 -3.87848e-018
LeftArm  0.341224 62.4203 -55.7078
LeftForeArm  -9.94458 -42.5477 9.93308
LeftHand  -3.90785 -8.1399 33.824
RightShoulder  2.70021 7.05953 13.787
RightArm  -2.12266 -17.4502 32.6838
RightForeArm  0.284433 52.8499 -36.4968
RightHand  -2.44379 3.11452 -32.2004
LeftUpLeg  -69.5572 7.6841 -7.98918
LeftLeg  94.2804 -18.4238 28.6066
LeftFoot  -13.6854 -0.0418134 -1.254
LeftToes  1.69338e-011 3.79281e-011 -2.20049e-011
139
root  -1.19834 30.4717 42.6803 -163.029 8.97334 -179.865
RightUpLeg  -58.0211 0.63373 4.77702
RightLeg  80.4192 15.3997 -4.85548
RightFoot  -37.5681 0.270848 0.658765
RightToes  -1.16415e-010 -3.18055e-015 -2.98177e-016
Spine  36.667 -0.817368 16.8455
Spine1  -4.30716 2.3213 1.25565
HEad  -17.5815 -1.15048 2.36835
LeftShoulder1  -3.88251e-019 9.70628e-020 -3.87848e-018
LeftArm  -1.44633 62.625 -54.8415
LeftForeArm  -9.31257 -42.1047 9.80078
LeftHand  -3.82165 -8.08436 33.2526
RightShoulder  2.77613 7.1115 14.2307
RightArm  -1.97558 -17.8313 32.3212
RightForeArm  0.8997 51.2432 -34.2699
RightHand  -2.64666 3.42732 -33.5731
LeftUpLeg  -73.5065 7.35718 -9.1782
LeftLeg  89.0938 -15.8839 29.2022
LeftFoot  -16.3901 -0.045139 0.159117
LeftToes  1.69338e-011 3.79281e-011 -2.20049e-011
140
root  -1.26479 30.5048 41.8559 -163.906 8.80167 179.188
RightUpLeg  -55.9944 0.0382485 3.22384
RightLeg  81.6036 15.5231 -4.3971
RightFoot  -38.2711 0.462792 1.49181
RightToes  -1.16415e-010 -3.18055e-015 -2.98177e-016
Spine  36.7069 -0.890418 16.5781
Spine1  -4.10003 2.40933 -0.588489
HEad  -17.6829 -1.34133 1.76113
LeftShoulder1  -3.88251e-019 9.70628e-020 -3.87848e-018
LeftArm  -2.73551 62.6541 -53.3721
LeftForeArm  -9.29463 -41.8731 9.71574
LeftHand  -3.91229 -8.29706 33.4792
RightShoulder  2.85072 7.21236 14.5804
RightArm  -2.13694 -18.411 32.4551
RightForeArm  1.42598 49.0864 -31.5891
RightHand  -2.81297 3.57842 -35.0001
LeftUpLeg  -76.6656 7.00767 -9.49244
LeftLeg  83.7393 -12.941 26.4396
LeftFoot  -18.7503 -0.0982902 -0.938848
LeftToes  1.69338e-011 3.79281e-011 -2.20049e-011
141
root  -1.3572 30.4289 41.0555 -164.756 8.7551 178.564
RightUpLeg  -54.2545 -0.382088 1.84829
RightLeg  83.3952 15.69 -3.54387
RightFoot  -38.8427 0.676029 2.38542
RightToes  -1.16415e-010 -3.18055e-015 -2.98177e-016
Spine  36.9542 -0.960028 16.2401
Spine1  -4.1476 2.43939 -2.20625
HEad  -17.6073 -1.38926 1.03976
LeftShoulder1  -3.88251e-019 9.70628e-020 -3.87848e-018
LeftArm  -3.92875 62.8845 -51.5831
LeftForeArm  -10.5076 -42.2674 9.79689
LeftHand  -3.93221 -8.32009 33.5842
RightShoulder  2.95006 7.36624 15.0064
RightArm  -2.44671 -18.7508 32.8396
RightForeArm  2.54544 46.1962 -28.4907
RightHand  -2.91669 3.68025 -35.8305
LeftUpLeg  -78.9262 6.6493 -9.36345
LeftLeg  77.558 -10.3029 23.4595
LeftFoot  -20.5522 -0.174115 -1.85837
LeftToes  1.69338e-011 3.79281e-011 -2.20049e-011
142
root  -1.46456 30.2678 40.2951 -165.736 8.6964 177.99
RightUpLeg  -52.6468 -0.685388 0.511941
RightLeg  85.5064 15.8142 -2.84837
RightFoot  -39.2419 0.929663 3.43861
RightToes  -1.16415e-010 -3.18055e-015 -2.98177e-016
Spine  37.3911 -0.979875 15.473
Spine1  -4.06776 2.42054 -3.34109
HEad  -17.5639 -1.38741 0.294588
LeftShoulder1  -3.88251e-019 9.70628e-020 -3.87848e-018
LeftArm  -5.57959 63.1491 -50.073
LeftForeArm  -12.0411 -42.9558 9.97444
LeftHand  -3.92094 -8.35225 33.4184
RightShoulder  3.04468 7.50779 15.4127
RightArm  -2.98399 -18.9676 33.3646
RightForeArm  4.18667 42.8506 -25.4263
RightHand  -2.93054 3.69402 -35.9374
LeftUpLeg  -79.725 6.11209 -9.1431
LeftLeg  70.4201 -8.14682 20.0471
LeftFoot  -21.4419 -0.165395 -1.44609
LeftToes  1.69338e-011 3.79281e-011 -2.20049e-011
143
root  -1.61453 29.9778 39.5276 -166.869 8.76749 177.451
RightUpLeg  -51.1997 -0.676827 -0.894215
RightLeg  88.1639 15.9084 -2.51628
RightFoot  -39.3975 1.24751 4.78182
RightToes  -1.16415e-010 -3.18055e-015 -2.98177e-016
Spine  37.7182 -1.03341 14.577
Spine1  -3.37175 2.47666 -4.48188
HEad  -17.7795 -1.38129 -0.431353
LeftShoulder1  -3.88251e-019 9.70628e-020 -3.87848e-018
LeftArm  -7.93443 63.0845 -49.1947
LeftForeArm  -12.6278 -43.5377 10.1669
LeftHand  -3.9339 -8.43539 33.3265
RightShoulder  3.10496 7.59196 15.6773
RightArm  -3.70012 -19.4959 34.0225
RightForeArm  5.133 39.5452 -22.7566
RightHand  -2.77993 3.30137 -35.6332
LeftUpLeg  -78.8673 5.30003 -8.52387
LeftLeg  63.3291 -7.1681 15.6228
LeftFoot  -18.2965 -0.119084 -1.75591
LeftToes  1.69338e-011 3.79281e-011 -2.20049e-011
